<svg width="55" height="56" viewBox="0 0 55 56" fill="none" xmlns="http://www.w3.org/2000/svg">
<rect opacity="0.5" x="0.213542" y="0.651194" width="54.2396" height="54.2396" rx="10.8906" stroke="#464646" stroke-opacity="0.6" stroke-width="0.427083"/>
<rect opacity="0.25" x="3.63029" y="4.06788" width="47.4062" height="47.4062" stroke="#464646" stroke-opacity="0.6" stroke-width="0.427083"/>
<path opacity="0.25" d="M3.84375 4.2814L51.25 51.6877" stroke="#464646" stroke-opacity="0.6" stroke-width="0.427083"/>
<path opacity="0.25" d="M50.823 4.2814L3.41675 51.6877" stroke="#464646" stroke-opacity="0.6" stroke-width="0.427083"/>
<path d="M5.23657 6.41684H46.7772C48.6139 6.41684 49.8542 8.29234 49.1352 9.98248L43.7243 22.7014C43.2979 23.7037 42.3141 24.3543 41.2248 24.3543H10.8381" stroke="#464646" stroke-width="3.41667" stroke-linecap="round" stroke-linejoin="round"/>
<path d="M10.8479 6.39249V31.1633C10.8479 32.5785 11.9952 33.7258 13.4104 33.7258H43.7333" stroke="#464646" stroke-width="3.41667" stroke-linecap="round" stroke-linejoin="round"/>
<path fill-rule="evenodd" clip-rule="evenodd" d="M17.0833 49.1252C14.7258 49.1252 12.8125 47.2142 12.8125 44.8543C12.8125 42.4945 14.7258 40.5835 17.0833 40.5835C19.4432 40.5835 21.3542 42.4945 21.3542 44.8543C21.3542 47.2142 19.4432 49.1252 17.0833 49.1252Z" stroke="#464646" stroke-width="3.41667"/>
<path fill-rule="evenodd" clip-rule="evenodd" d="M37.5833 49.1252C35.2258 49.1252 33.3125 47.2142 33.3125 44.8543C33.3125 42.4945 35.2258 40.5835 37.5833 40.5835C39.9432 40.5835 41.8542 42.4945 41.8542 44.8543C41.8542 47.2142 39.9432 49.1252 37.5833 49.1252Z" stroke="#464646" stroke-width="3.41667"/>
</svg>
