<svg width="56" height="55" viewBox="0 0 56 55" fill="none" xmlns="http://www.w3.org/2000/svg">
<rect opacity="0.5" x="0.672038" y="0.505381" width="54.2396" height="54.2396" rx="10.8906" stroke="#464646" stroke-opacity="0.6" stroke-width="0.427083"/>
<rect opacity="0.25" x="4.08879" y="3.92204" width="47.4062" height="47.4062" stroke="#464646" stroke-opacity="0.6" stroke-width="0.427083"/>
<path opacity="0.25" d="M4.30225 4.13559L51.7085 51.5418" stroke="#464646" stroke-opacity="0.6" stroke-width="0.427083"/>
<path opacity="0.25" d="M51.2815 4.13559L3.87524 51.5418" stroke="#464646" stroke-opacity="0.6" stroke-width="0.427083"/>
<path d="M39.323 12.2502L49.1028 12.2502V19.4686C48.9532 21.8038 46.6797 23.6599 43.8961 23.6599C42.9898 23.6599 42.4517 23.4559 41.8268 23.1072" stroke="#464646" stroke-width="3.41667" stroke-linejoin="round"/>
<path d="M31.8079 19.4851V9.70708C31.8079 7.45558 29.6186 5.63037 26.918 5.63037C24.2174 5.63037 22.0281 7.45558 22.0281 9.70708V12.5577" stroke="#464646" stroke-width="3.41667"/>
<path fill-rule="evenodd" clip-rule="evenodd" d="M27.7329 18.6701C27.7329 18.1984 28.1153 17.8159 28.5871 17.8159H35.0286C35.5003 17.8159 35.8828 18.1984 35.8828 18.6701V26.7416C35.8828 27.2133 35.5003 27.5958 35.0286 27.5958H28.5871C28.1153 27.5958 27.7329 27.2133 27.7329 26.7416V18.6701Z" stroke="#464646" stroke-width="3.41667"/>
<path d="M6.4375 49.4064H41.4583" stroke="#464646" stroke-width="3.41667" stroke-linecap="round" stroke-linejoin="round"/>
<mask id="path-9-inside-1_36_1075" fill="white">
<path fill-rule="evenodd" clip-rule="evenodd" d="M7.29175 10.5418C5.87652 10.5418 4.72925 11.6891 4.72925 13.1043V28.398C4.72925 28.4008 4.72926 28.4035 4.72929 28.4063C4.72926 28.4171 4.72925 28.4279 4.72925 28.4387C4.72925 37.4243 13.3338 44.7085 23.948 44.7085C34.5622 44.7085 43.1668 37.4243 43.1668 28.4387C43.1668 28.4277 43.1667 28.4167 43.1667 28.4058C43.1667 28.4032 43.1667 28.4006 43.1667 28.398V11.396C43.1667 10.9243 42.7843 10.5418 42.3126 10.5418H7.29175Z"/>
</mask>
<path d="M4.72929 28.4063L8.14595 28.4142L8.14599 28.3939L8.1458 28.3737L4.72929 28.4063ZM43.1667 28.4058L39.7502 28.3756L39.75 28.3948L39.7501 28.4141L43.1667 28.4058ZM8.14591 13.1043C8.14591 13.5761 7.76349 13.9585 7.29175 13.9585V7.12517C3.98955 7.12517 1.31258 9.80213 1.31258 13.1043H8.14591ZM8.14591 28.398V13.1043H1.31258V28.398H8.14591ZM8.1458 28.3737C8.14588 28.3818 8.14591 28.3899 8.14591 28.398H1.31258C1.31258 28.4116 1.31265 28.4253 1.31278 28.439L8.1458 28.3737ZM8.14592 28.4387C8.14592 28.4305 8.14593 28.4223 8.14595 28.4142L1.31263 28.3985C1.3126 28.4119 1.31258 28.4253 1.31258 28.4387H8.14592ZM23.948 41.2918C14.6651 41.2918 8.14592 35.0259 8.14592 28.4387H1.31258C1.31258 39.8226 12.0024 48.1252 23.948 48.1252V41.2918ZM39.7501 28.4387C39.7501 35.0259 33.2309 41.2918 23.948 41.2918V48.1252C35.8936 48.1252 46.5834 39.8226 46.5834 28.4387H39.7501ZM39.7501 28.4141C39.7501 28.4219 39.7501 28.4301 39.7501 28.4387H46.5834C46.5834 28.4253 46.5834 28.4116 46.5834 28.3974L39.7501 28.4141ZM39.7501 28.398C39.7501 28.3905 39.7501 28.3831 39.7502 28.3756L46.5832 28.436C46.5834 28.4233 46.5834 28.4106 46.5834 28.398H39.7501ZM39.7501 11.396V28.398H46.5834V11.396H39.7501ZM42.3126 13.9585C40.8974 13.9585 39.7501 12.8112 39.7501 11.396H46.5834C46.5834 9.03728 44.6713 7.12517 42.3126 7.12517V13.9585ZM7.29175 13.9585H42.3126V7.12517H7.29175V13.9585Z" fill="#464646" mask="url(#path-9-inside-1_36_1075)"/>
</svg>
