<svg width="56" height="55" viewBox="0 0 56 55" fill="none" xmlns="http://www.w3.org/2000/svg">
<rect opacity="0.5" x="0.901286" y="0.505381" width="54.2396" height="54.2396" rx="10.8906" stroke="#464646" stroke-opacity="0.6" stroke-width="0.427083"/>
<rect opacity="0.25" x="4.31803" y="3.92204" width="47.4062" height="47.4062" stroke="#464646" stroke-opacity="0.6" stroke-width="0.427083"/>
<path opacity="0.25" d="M4.53149 4.13559L51.9377 51.5418" stroke="#464646" stroke-opacity="0.6" stroke-width="0.427083"/>
<path opacity="0.25" d="M51.5107 4.13559L4.10449 51.5418" stroke="#464646" stroke-opacity="0.6" stroke-width="0.427083"/>
<mask id="path-5-inside-1_36_1059" fill="white">
<path fill-rule="evenodd" clip-rule="evenodd" d="M37.8985 9.30077C38.7107 9.11914 39.5554 9.02332 40.4224 9.02332C46.7822 9.02332 51.9378 14.179 51.9378 20.5387C51.9378 25.6623 48.5917 30.0043 43.9656 31.4988V48.2933C43.9656 50.0874 42.5112 51.5418 40.7171 51.5418H16.2111C14.4169 51.5418 12.9625 50.0874 12.9625 48.2933V31.746C7.88386 30.5464 4.10449 25.9839 4.10449 20.5387C4.10449 14.179 9.26013 9.02332 15.6199 9.02332C16.487 9.02332 17.3316 9.11914 18.1438 9.30077C20.1574 5.95024 23.8275 3.7085 28.0212 3.7085C32.2148 3.7085 35.8849 5.95024 37.8985 9.30077Z"/>
</mask>
<path d="M37.8985 9.30077L34.97 11.0607L36.2393 13.1728L38.6441 12.6351L37.8985 9.30077ZM43.9656 31.4988L42.9153 28.2476L40.5489 29.012V31.4988H43.9656ZM12.9625 31.746H16.3792V29.0424L13.748 28.4209L12.9625 31.746ZM18.1438 9.30077L17.3983 12.6351L19.8031 13.1728L21.0724 11.0607L18.1438 9.30077ZM38.6441 12.6351C39.2132 12.5078 39.8078 12.44 40.4224 12.44V5.60665C39.3029 5.60665 38.2083 5.73045 37.1529 5.96645L38.6441 12.6351ZM40.4224 12.44C44.8952 12.44 48.5212 16.0659 48.5212 20.5387H55.3545C55.3545 12.292 48.6692 5.60665 40.4224 5.60665V12.44ZM48.5212 20.5387C48.5212 24.1369 46.1723 27.1954 42.9153 28.2476L45.0159 34.75C51.0112 32.8133 55.3545 27.1877 55.3545 20.5387H48.5212ZM40.5489 31.4988V48.2933H47.3823V31.4988H40.5489ZM40.5489 48.2933C40.5489 48.2004 40.6242 48.1251 40.7171 48.1251V54.9585C44.3981 54.9585 47.3823 51.9744 47.3823 48.2933H40.5489ZM40.7171 48.1251H16.2111V54.9585H40.7171V48.1251ZM16.2111 48.1251C16.3039 48.1251 16.3792 48.2004 16.3792 48.2933H9.54586C9.54586 51.9744 12.53 54.9585 16.2111 54.9585V48.1251ZM16.3792 48.2933V31.746H9.54586V48.2933H16.3792ZM13.748 28.4209C10.1763 27.5772 7.52116 24.3639 7.52116 20.5387H0.687826C0.687826 27.604 5.5914 33.5156 12.1771 35.0712L13.748 28.4209ZM7.52116 20.5387C7.52116 16.0659 11.1471 12.44 15.6199 12.44V5.60665C7.37315 5.60665 0.687826 12.292 0.687826 20.5387H7.52116ZM15.6199 12.44C16.2345 12.44 16.8291 12.5078 17.3983 12.6351L18.8894 5.96645C17.8341 5.73045 16.7394 5.60665 15.6199 5.60665V12.44ZM21.0724 11.0607C22.4939 8.69536 25.0758 7.12516 28.0212 7.12516V0.29183C22.5791 0.29183 17.8209 3.20512 15.2153 7.54084L21.0724 11.0607ZM28.0212 7.12516C30.9665 7.12516 33.5485 8.69536 34.97 11.0607L40.827 7.54084C38.2214 3.20512 33.4632 0.29183 28.0212 0.29183V7.12516Z" fill="#464646" mask="url(#path-5-inside-1_36_1059)"/>
<path d="M23.7503 31.0418V36.1668" stroke="#464646" stroke-width="3.41667" stroke-linecap="round"/>
<path d="M32.7191 31.0418V36.1668" stroke="#464646" stroke-width="3.41667" stroke-linecap="round"/>
<path d="M13.5002 43.4272H42.5419" stroke="#464646" stroke-width="3.41667"/>
</svg>
