<svg width="55" height="56" viewBox="0 0 55 56" fill="none" xmlns="http://www.w3.org/2000/svg">
<rect opacity="0.5" x="0.297038" y="0.651194" width="54.2396" height="54.2396" rx="10.8906" stroke="#464646" stroke-opacity="0.6" stroke-width="0.427083"/>
<rect opacity="0.25" x="3.71379" y="4.06788" width="47.4062" height="47.4062" stroke="#464646" stroke-opacity="0.6" stroke-width="0.427083"/>
<path opacity="0.25" d="M3.92725 4.2814L51.3335 51.6877" stroke="#464646" stroke-opacity="0.6" stroke-width="0.427083"/>
<path opacity="0.25" d="M50.9065 4.2814L3.50024 51.6877" stroke="#464646" stroke-opacity="0.6" stroke-width="0.427083"/>
<path d="M40.4697 17.4547C39.6848 11.2007 34.1397 6.35214 27.4173 6.35214C20.6955 6.35214 15.1519 11.1973 14.364 17.4498" stroke="#464646" stroke-width="3.41667" stroke-linecap="round"/>
<path d="M10.3335 23.073H44.5002" stroke="#464646" stroke-width="3.41667" stroke-linecap="round"/>
<path d="M14.364 30.4077H39.5373" stroke="#464646" stroke-width="3.41667"/>
<path d="M35.8614 3.85431L33.4207 7.20908" stroke="#464646" stroke-width="3.41667" stroke-linecap="round"/>
<path d="M13.4316 23.006L18.4146 49.5971C18.6417 50.8092 19.7 51.6876 20.9332 51.6876H33.6283C34.8848 51.6876 35.956 50.7765 36.1576 49.5362L40.4696 23.006" stroke="#464646" stroke-width="3.41667" stroke-linejoin="round"/>
</svg>
