<svg width="56" height="55" viewBox="0 0 56 55" fill="none" xmlns="http://www.w3.org/2000/svg">
<rect opacity="0.5" x="1.06779" y="0.276225" width="54.2396" height="54.2396" rx="10.8906" stroke="#464646" stroke-opacity="0.6" stroke-width="0.427083"/>
<rect opacity="0.25" x="4.48454" y="3.69285" width="47.4062" height="47.4062" stroke="#464646" stroke-opacity="0.6" stroke-width="0.427083"/>
<path opacity="0.25" d="M4.698 3.90643L52.1042 51.3127" stroke="#464646" stroke-opacity="0.6" stroke-width="0.427083"/>
<path opacity="0.25" d="M51.6772 3.90643L4.27099 51.3127" stroke="#464646" stroke-opacity="0.6" stroke-width="0.427083"/>
<path d="M46.125 34.1073V46.9198C46.125 48.335 44.9777 49.4823 43.5625 49.4823H12.8125C11.3973 49.4823 10.25 48.335 10.25 46.9198V34.1073" stroke="#444444" stroke-width="3.41667" stroke-linecap="round" stroke-linejoin="round"/>
<path d="M35.0209 49.1772V40.6356C35.0209 36.8616 31.9615 33.8022 28.1876 33.8022V33.8022C24.4136 33.8022 21.3542 36.8616 21.3542 40.6356V49.1772" stroke="#464646" stroke-width="3.41667"/>
<path d="M13.7778 6.214L12.4105 5.18987L12.4105 5.18987L13.7778 6.214ZM8.14883 13.7294L6.7815 12.7052C6.39566 13.2204 6.3321 13.9087 6.61708 14.4858C6.90207 15.0629 7.48722 15.4308 8.13081 15.4376L8.14883 13.7294ZM8.17569 13.7296L9.42138 14.8987C9.88523 14.4044 10.013 13.6827 9.74697 13.0592C9.48095 12.4357 8.8715 12.0285 8.1937 12.0214L8.17569 13.7296ZM21.2453 23.1191L22.7112 22.2418C22.3954 21.7143 21.8207 21.3971 21.2061 21.4113C20.5915 21.4254 20.0319 21.7686 19.7408 22.31L21.2453 23.1191ZM35.1298 23.1191L36.6344 22.31C36.3432 21.7686 35.7837 21.4254 35.1691 21.4113C34.5545 21.3971 33.9797 21.7143 33.664 22.2418L35.1298 23.1191ZM48.5725 14.1558L48.5905 12.4476C47.9277 12.4406 47.3206 12.8177 47.0332 13.415C46.7457 14.0123 46.8297 14.722 47.2487 15.2357L48.5725 14.1558ZM48.6278 14.1564L48.6098 15.8647C49.2605 15.8715 49.8586 15.5081 50.1523 14.9273C50.446 14.3466 50.3842 13.6494 49.9929 13.1294L48.6278 14.1564ZM42.6487 6.20956L41.2836 7.23664L41.2836 7.23664L42.6487 6.20956ZM15.1452 7.23812C15.3064 7.02278 15.5598 6.89602 15.8288 6.89602V3.47935C14.4836 3.47935 13.217 4.11316 12.4105 5.18987L15.1452 7.23812ZM9.51615 14.7535L15.1452 7.23812L12.4105 5.18987L6.7815 12.7052L9.51615 14.7535ZM8.1937 12.0214L8.16684 12.0211L8.13081 15.4376L8.15768 15.4379L8.1937 12.0214ZM7.68758 19.2814C7.68758 17.5851 8.34462 16.046 9.42138 14.8987L6.93 12.5606C5.28245 14.3162 4.27091 16.6825 4.27091 19.2814H7.68758ZM14.0938 25.6877C10.5558 25.6877 7.68758 22.8195 7.68758 19.2814H4.27091C4.27091 24.7065 8.66878 29.1043 14.0938 29.1043V25.6877ZM19.7408 22.31C18.6575 24.3244 16.5336 25.6877 14.0938 25.6877V29.1043C17.8407 29.1043 21.0949 27.0059 22.7499 23.9282L19.7408 22.31ZM28.1876 25.6877C26.0439 25.6877 24.0174 24.424 22.7112 22.2418L19.7795 23.9965C21.5738 26.9942 24.6109 29.1043 28.1876 29.1043V25.6877ZM33.664 22.2418C32.3578 24.424 30.3313 25.6877 28.1876 25.6877V29.1043C31.7642 29.1043 34.8014 26.9942 36.5956 23.9965L33.664 22.2418ZM42.2813 25.6877C39.8416 25.6877 37.7176 24.3244 36.6344 22.31L33.6252 23.9282C35.2803 27.0059 38.5344 29.1043 42.2813 29.1043V25.6877ZM48.6876 19.2814C48.6876 22.8195 45.8194 25.6877 42.2813 25.6877V29.1043C47.7064 29.1043 52.1042 24.7065 52.1042 19.2814H48.6876ZM47.2487 15.2357C48.149 16.3393 48.6876 17.7452 48.6876 19.2814H52.1042C52.1042 16.9298 51.2757 14.7671 49.8963 13.076L47.2487 15.2357ZM48.6458 12.4482L48.5905 12.4476L48.5545 15.8641L48.6098 15.8647L48.6458 12.4482ZM41.2836 7.23664L47.2627 15.1835L49.9929 13.1294L44.0138 5.18248L41.2836 7.23664ZM40.6011 6.89602C40.8695 6.89602 41.1222 7.02217 41.2836 7.23664L44.0138 5.18249C43.207 4.11012 41.943 3.47935 40.6011 3.47935V6.89602ZM15.8288 6.89602H40.6011V3.47935H15.8288V6.89602Z" fill="#464646"/>
</svg>
