<svg width="548" height="97" viewBox="0 0 548 97" fill="none" xmlns="http://www.w3.org/2000/svg">
<path fill-rule="evenodd" clip-rule="evenodd" d="M120.238 54.1753H158.96C161.837 54.1753 164.338 53.9867 166.47 53.6186C168.599 53.2413 170.449 52.6086 172.02 51.7137C173.584 50.8188 174.995 49.588 176.246 48.0236C177.492 46.4569 178.667 44.4784 179.779 42.0927L195.777 7.74756H178.171L172.806 19.2711L167.332 31.0178L163.266 39.7438C162.641 41.0828 162.033 41.8857 161.452 42.1479C160.872 42.4079 159.943 42.5436 158.679 42.5436H128.031C126.762 42.5436 125.932 42.4079 125.534 42.1479C125.141 41.8857 125.257 41.0828 125.884 39.7438L129.947 31.0178L135.417 19.2711L140.787 7.74756H125.632L109.634 42.0927C108.523 44.4784 107.919 46.4569 107.825 48.0236C107.722 49.588 108.102 50.8188 108.95 51.7137C109.799 52.6086 111.175 53.2413 113.073 53.6186C114.971 53.9867 117.356 54.1753 120.238 54.1753Z" fill="white"/>
<path fill-rule="evenodd" clip-rule="evenodd" d="M124.866 82.3337H186.652L198.22 57.8408H116.395L111.248 68.7391H172.857L171.106 72.4427H109.497L102.814 86.6033C101.186 90.0505 101.34 92.6335 103.282 94.3571C105.223 96.0761 108.829 96.9379 114.104 96.9379H181.51L186.711 85.9264H126.335C124.224 85.9264 123.47 85.291 124.07 84.018L124.866 82.3337Z" fill="white"/>
<path fill-rule="evenodd" clip-rule="evenodd" d="M264.232 60.284L269.729 48.2565H240.985C238.195 48.2565 236.404 47.8504 235.605 47.0381C234.806 46.2281 234.857 44.8304 235.764 42.8497L236.776 40.6397H271.04L284.967 10.1909H232.652L227.15 22.2139H260.411L257.232 29.1658H222.971L216.26 43.8389C213.566 49.7245 213.398 53.9333 215.745 56.4722C218.098 59.0111 223.451 60.284 231.808 60.284H264.232Z" fill="white"/>
<path fill-rule="evenodd" clip-rule="evenodd" d="M329.051 30.8404L331.395 25.9405H312.323L319.695 10.1909H300.111L276.415 60.284H295.996L304.275 42.7894C304.275 42.7894 310.717 30.8359 328.999 30.8359C329.022 30.8359 329.035 30.8404 329.051 30.8404Z" fill="white"/>
<path fill-rule="evenodd" clip-rule="evenodd" d="M267.157 78.8766C266.486 80.2293 265.199 81.3049 263.292 82.0858C261.378 82.871 259.431 83.2626 257.445 83.2626H229.736C227.632 83.2626 226.033 82.8886 224.939 82.1364C223.847 81.3907 223.657 80.3063 224.363 78.8766L224.681 78.2365C225.353 76.8838 226.633 75.8302 228.524 75.0779C230.412 74.3323 232.354 73.9583 234.34 73.9583H262.054C264.272 73.9583 265.882 74.3697 266.881 75.1857C267.875 76.0061 268.075 77.0245 267.476 78.2365L267.157 78.8766ZM279.158 63.8493C276.487 63.1015 273.516 62.7275 270.242 62.7275H237.444C233.702 62.7275 230.126 63.1015 226.719 63.8493C223.306 64.5972 220.182 65.6486 217.35 67.0079C214.514 68.3607 212.028 69.9664 209.882 71.8184C207.735 73.6749 206.116 75.7073 205.022 77.9178L204.388 79.198C203.289 81.4108 202.899 83.4432 203.212 85.2952C203.521 87.1517 204.418 88.753 205.911 90.1101C207.405 91.4651 209.477 92.5297 212.132 93.3149C214.781 94.1024 217.979 94.4939 221.724 94.4939H254.518C257.789 94.4939 261.141 94.1024 264.572 93.3149C268.003 92.5297 271.16 91.4651 274.05 90.1101C276.94 88.753 279.523 87.1517 281.785 85.2952C284.046 83.4432 285.723 81.4108 286.817 79.198L287.454 77.9178C288.545 75.7073 288.878 73.6749 288.455 71.8184C288.03 69.9664 287.035 68.3607 285.488 67.0079C283.937 65.6486 281.827 64.5972 279.158 63.8493Z" fill="white"/>
<path fill-rule="evenodd" clip-rule="evenodd" d="M220.617 7.74756H203.885L182.337 54.1753H199.067L205.038 41.3112C205.038 41.3112 211.543 29.0037 230.015 29.0037C230.031 29.0037 230.049 29.0083 230.067 29.0083L232.43 23.9635H213.167L220.617 7.74756Z" fill="white"/>
<path fill-rule="evenodd" clip-rule="evenodd" d="M179.891 23.6332C165.385 23.6332 148.757 34.0221 142.753 46.8447C148.757 34.0221 141.866 23.6286 127.357 23.6286C141.866 23.6286 158.494 13.2396 164.498 0.416992C158.494 13.2396 165.385 23.6286 179.894 23.6286" fill="white"/>
<path fill-rule="evenodd" clip-rule="evenodd" d="M338.936 54.1753H377.659C380.535 54.1753 383.037 53.9867 385.168 53.6186C387.297 53.2413 389.147 52.6086 390.718 51.7137C392.282 50.8188 393.693 49.588 394.944 48.0236C396.191 46.4569 397.366 44.4784 398.477 42.0927L414.476 7.74756H396.87L391.505 19.2711L386.03 31.0178L381.965 39.7438C381.34 41.0828 380.732 41.8857 380.151 42.1479C379.57 42.4079 378.642 42.5436 377.377 42.5436H346.73C345.461 42.5436 344.631 42.4079 344.233 42.1479C343.839 41.8857 343.956 41.0828 344.583 39.7438L348.646 31.0178L354.116 19.2711L359.485 7.74756H344.331L328.333 42.0927C327.221 44.4784 326.618 46.4569 326.524 48.0236C326.421 49.588 326.801 50.8188 327.649 51.7137C328.497 52.6086 329.874 53.2413 331.772 53.6186C333.67 53.9867 336.055 54.1753 338.936 54.1753Z" fill="white"/>
<path fill-rule="evenodd" clip-rule="evenodd" d="M343.566 82.3337H405.352L416.92 57.8408H335.095L329.948 68.7391H391.557L389.806 72.4427H328.197L321.513 86.6033C319.886 90.0505 320.04 92.6335 321.981 94.3571C323.923 96.0761 327.529 96.9379 332.804 96.9379H400.21L405.41 85.9264H345.035C342.924 85.9264 342.169 85.291 342.77 84.018L343.566 82.3337Z" fill="white"/>
<path fill-rule="evenodd" clip-rule="evenodd" d="M482.931 60.284L488.428 48.2565H459.684C456.894 48.2565 455.103 47.8504 454.304 47.0381C453.505 46.2281 453.556 44.8304 454.464 42.8497L455.475 40.6397H489.739L503.666 10.1909H451.351L445.85 22.2139H479.11L475.931 29.1658H441.67L434.96 43.8389C432.265 49.7245 432.097 53.9333 434.444 56.4722C436.797 59.0111 442.15 60.284 450.507 60.284H482.931Z" fill="white"/>
<path fill-rule="evenodd" clip-rule="evenodd" d="M545.306 30.8404L547.65 25.9405H528.578L535.95 10.1909H516.366L492.67 60.284H512.252L520.53 42.7894C520.53 42.7894 526.972 30.8359 545.255 30.8359C545.277 30.8359 545.291 30.8404 545.306 30.8404Z" fill="white"/>
<path fill-rule="evenodd" clip-rule="evenodd" d="M487.078 78.8766C486.407 80.2293 485.12 81.3049 483.213 82.0858C481.299 82.871 479.352 83.2626 477.366 83.2626H449.657C447.553 83.2626 445.954 82.8886 444.86 82.1364C443.768 81.3907 443.578 80.3063 444.284 78.8766L444.602 78.2365C445.274 76.8838 446.554 75.8302 448.445 75.0779C450.333 74.3323 452.275 73.9583 454.261 73.9583H481.975C484.193 73.9583 485.803 74.3697 486.802 75.1857C487.796 76.0061 487.996 77.0245 487.397 78.2365L487.078 78.8766ZM499.079 63.8493C496.408 63.1015 493.436 62.7275 490.163 62.7275H457.365C453.622 62.7275 450.047 63.1015 446.64 63.8493C443.227 64.5972 440.103 65.6486 437.271 67.0079C434.434 68.3607 431.949 69.9664 429.802 71.8184C427.656 73.6749 426.037 75.7073 424.943 77.9178L424.309 79.198C423.21 81.4108 422.819 83.4432 423.133 85.2952C423.442 87.1517 424.339 88.753 425.832 90.1101C427.326 91.4651 429.398 92.5297 432.053 93.3149C434.702 94.1024 437.9 94.4939 441.645 94.4939H474.439C477.71 94.4939 481.062 94.1024 484.493 93.3149C487.924 92.5297 491.081 91.4651 493.971 90.1101C496.861 88.753 499.444 87.1517 501.706 85.2952C503.967 83.4432 505.644 81.4108 506.738 79.198L507.374 77.9178C508.466 75.7073 508.798 73.6749 508.376 71.8184C507.951 69.9664 506.956 68.3607 505.409 67.0079C503.857 65.6486 501.748 64.5972 499.079 63.8493Z" fill="white"/>
<path fill-rule="evenodd" clip-rule="evenodd" d="M439.316 7.74756H422.584L401.036 54.1753H417.766L423.737 41.3112C423.737 41.3112 430.242 29.0037 448.714 29.0037C448.73 29.0037 448.748 29.0083 448.767 29.0083L451.129 23.9635H431.866L439.316 7.74756Z" fill="white"/>
<path fill-rule="evenodd" clip-rule="evenodd" d="M394.925 23.6332C380.418 23.6332 363.79 34.0221 357.786 46.8447C363.79 34.0221 356.9 23.6286 342.391 23.6286C356.9 23.6286 373.528 13.2396 379.532 0.416992C373.528 13.2396 380.418 23.6286 394.927 23.6286" fill="white"/>
<path fill-rule="evenodd" clip-rule="evenodd" d="M99.2514 46.8491C71.9246 46.8491 40.6039 66.532 29.2917 90.8287C40.6039 66.532 27.6228 46.84 0.291504 46.84C27.6228 46.84 58.9436 27.1571 70.2557 2.86035C58.9436 27.1571 71.9246 46.84 99.2559 46.84" fill="white"/>
</svg>
