<svg width="55" height="55" viewBox="0 0 55 55" fill="none" xmlns="http://www.w3.org/2000/svg">
<rect opacity="0.5" x="0.297038" y="0.276225" width="54.2396" height="54.2396" rx="10.8906" stroke="#464646" stroke-opacity="0.6" stroke-width="0.427083"/>
<rect opacity="0.25" x="3.71379" y="3.69285" width="47.4062" height="47.4062" stroke="#464646" stroke-opacity="0.6" stroke-width="0.427083"/>
<path opacity="0.25" d="M3.92725 3.90643L51.3335 51.3127" stroke="#464646" stroke-opacity="0.6" stroke-width="0.427083"/>
<path opacity="0.25" d="M50.9065 3.90643L3.50024 51.3127" stroke="#464646" stroke-opacity="0.6" stroke-width="0.427083"/>
<path fill-rule="evenodd" clip-rule="evenodd" d="M17.6537 10.9718C17.7626 10.8301 17.8216 10.6563 17.8216 10.4775V7.75018C17.8216 6.33495 18.9689 5.18768 20.3841 5.18768H34.5659C35.9811 5.18768 37.1284 6.33495 37.1284 7.75018V10.481C37.1284 10.6576 37.186 10.8294 37.2926 10.9704L43.9814 19.8164C44.3179 20.2614 44.4999 20.8041 44.4999 21.362V47.0418C44.4999 48.4571 43.3526 49.6044 41.9374 49.6044H12.8958C11.4805 49.6044 10.3333 48.4571 10.3333 47.0419V21.3728C10.3333 20.8082 10.5197 20.2595 10.8636 19.8118L17.6537 10.9718Z" stroke="#444444" stroke-width="3.41667"/>
<path d="M18.0208 11.4199L24.601 22.1292V51.3127" stroke="#444444" stroke-width="3.41667"/>
<path d="M10.1436 22.1128H44.6899" stroke="#444444" stroke-width="3.41667"/>
</svg>
