<svg width="56" height="55" viewBox="0 0 56 55" fill="none" xmlns="http://www.w3.org/2000/svg">
<rect opacity="0.5" x="0.75529" y="0.276225" width="54.2396" height="54.2396" rx="10.8906" stroke="#464646" stroke-opacity="0.6" stroke-width="0.427083"/>
<rect opacity="0.25" x="4.17204" y="3.69285" width="47.4062" height="47.4062" stroke="#464646" stroke-opacity="0.6" stroke-width="0.427083"/>
<path opacity="0.25" d="M4.3855 3.90643L51.7917 51.3127" stroke="#464646" stroke-opacity="0.6" stroke-width="0.427083"/>
<path opacity="0.25" d="M51.3647 3.90643L3.95849 51.3127" stroke="#464646" stroke-opacity="0.6" stroke-width="0.427083"/>
<path fill-rule="evenodd" clip-rule="evenodd" d="M7.375 47.0418C7.375 48.4571 8.52227 49.6043 9.9375 49.6043H26.1983C27.6135 49.6043 28.7608 48.4571 28.7608 47.0418V29.9585C28.7608 28.5433 27.6135 27.396 26.1983 27.396H9.9375C8.52227 27.396 7.375 28.5433 7.375 29.9585V47.0418Z" stroke="#464646" stroke-width="3.41667" stroke-linecap="round" stroke-linejoin="round"/>
<path d="M15.9167 20.5887V17.146C15.9167 15.7308 17.064 14.5835 18.4792 14.5835H45.8126C47.2278 14.5835 48.3751 15.7308 48.3751 17.146V42.771C48.3751 44.1862 47.2278 45.3335 45.8126 45.3335H36.2272" stroke="#464646" stroke-width="3.41667" stroke-linecap="round" stroke-linejoin="round"/>
<path d="M39.8333 14.5835V12.9005C39.8333 8.64149 36.3921 5.18768 32.1466 5.18768C27.9011 5.18768 24.4583 8.64149 24.4583 12.9005V14.5835" stroke="#464646" stroke-width="3.41667" stroke-linecap="round" stroke-linejoin="round"/>
<path d="M7.375 34.2293H28.7608" stroke="#464646" stroke-width="3.41667" stroke-linecap="round" stroke-linejoin="round"/>
</svg>
