<svg width="56" height="56" viewBox="0 0 56 56" fill="none" xmlns="http://www.w3.org/2000/svg">
<rect opacity="0.5" x="0.984538" y="0.651194" width="54.2396" height="54.2396" rx="10.8906" stroke="#464646" stroke-opacity="0.6" stroke-width="0.427083"/>
<rect opacity="0.25" x="4.40129" y="4.06788" width="47.4062" height="47.4062" stroke="#464646" stroke-opacity="0.6" stroke-width="0.427083"/>
<path opacity="0.25" d="M4.61475 4.2814L52.021 51.6877" stroke="#464646" stroke-opacity="0.6" stroke-width="0.427083"/>
<path opacity="0.25" d="M51.594 4.2814L4.18774 51.6877" stroke="#464646" stroke-opacity="0.6" stroke-width="0.427083"/>
<rect x="18.7084" y="11.5418" width="18.7917" height="7.6875" rx="2.5625" stroke="#464646" stroke-width="3.41667"/>
<path d="M31.5211 11.1147H33.2294V9.40641V8.12516C33.2294 6.70993 32.0821 5.56266 30.6669 5.56266H25.5419C24.1267 5.56266 22.9794 6.70993 22.9794 8.12516V9.40641V11.1147H24.6877H28.1044H31.5211Z" stroke="#464646" stroke-width="3.41667"/>
<path d="M22.2785 19.2293V21.0246C22.2785 22.3504 21.6628 23.601 20.6121 24.4094L13.7111 29.7194C12.0427 31.003 11.1723 33.0695 11.4194 35.1599L12.9037 47.7176C13.0561 49.0075 14.1496 49.9793 15.4485 49.9793H40.7602C42.0591 49.9793 43.1525 49.0075 43.305 47.7176L44.7893 35.1599C45.0363 33.0695 44.1659 31.003 42.4976 29.7194L35.5966 24.4094C34.5459 23.601 33.9302 22.3504 33.9302 21.0246V19.2293" stroke="#464646" stroke-width="3.41667"/>
</svg>
