<svg width="56" height="55" viewBox="0 0 56 55" fill="none" xmlns="http://www.w3.org/2000/svg">
<circle cx="13.8649" cy="14.1564" r="8.11458" stroke="#464646" stroke-width="3.41667"/>
<path d="M28.7535 44.6756L27.9586 44.2577L27.1636 44.6756L20.1861 48.3439L21.5187 40.5743L21.6705 39.6891L21.0274 39.0622L15.3825 33.5598L23.1836 32.4262L24.0724 32.2971L24.4698 31.4917L27.9586 24.4227L31.4473 31.4917L31.8448 32.2971L32.7336 32.4262L40.5347 33.5598L34.8897 39.0622L34.2466 39.6891L34.3984 40.5743L35.731 48.3439L28.7535 44.6756Z" stroke="#464646" stroke-width="3.41667"/>
<path d="M38.3967 6.38817L49.6891 10.4983C50.1324 10.6596 50.361 11.1498 50.1996 11.5931L46.0895 22.8855C45.9282 23.3288 45.438 23.5574 44.9947 23.396L33.7023 19.2859C33.259 19.1246 33.0304 18.6344 33.1918 18.1911L37.3019 6.89868C37.4632 6.45539 37.9534 6.22682 38.3967 6.38817Z" stroke="#464646" stroke-width="3.41667"/>
<rect opacity="0.5" x="0.838786" y="0.276225" width="54.2396" height="54.2396" rx="10.8906" stroke="#464646" stroke-opacity="0.6" stroke-width="0.427083"/>
<rect opacity="0.25" x="4.25553" y="3.69285" width="47.4062" height="47.4062" stroke="#464646" stroke-opacity="0.6" stroke-width="0.427083"/>
<path opacity="0.25" d="M4.46899 3.90643L51.8752 51.3127" stroke="#464646" stroke-opacity="0.6" stroke-width="0.427083"/>
<path opacity="0.25" d="M51.4482 3.90643L4.04199 51.3127" stroke="#464646" stroke-opacity="0.6" stroke-width="0.427083"/>
</svg>
